name rise43.5482peak65.4966fall89.1036.mot
datacolumns 19
datarows 39
range 12.494945 12.558278
endheader
time	ground_force1_vx	ground_force1_vy	ground_force1_vz	ground_force1_px	ground_force1_py	ground_force1_pz	ground_force2_vx	ground_force2_vy	ground_force2_vz	ground_force2_px	ground_force2_py	ground_force2_pz	ground_torque1_x	ground_torque1_y	ground_torque1_z	ground_torque2_x	ground_torque2_y	ground_torque2_z	
12.494945	13.037189	694.956609	42.348009	0.182876	0.000000	0.113022	0.000000	0.000000	0.000000	0.000000	0.000000	0.000000	0.000000	10.491886	0.000000	0.000000	0.000000	0.000000	
12.496617	12.790948	694.536509	42.296278	0.182093	0.000000	0.112997	0.000000	0.000000	0.000000	0.000000	0.000000	0.000000	0.000000	10.493388	0.000000	0.000000	0.000000	0.000000	
12.498283	12.535719	694.191216	42.250735	0.181305	0.000000	0.112972	0.000000	0.000000	0.000000	0.000000	0.000000	0.000000	0.000000	10.500316	0.000000	0.000000	0.000000	0.000000	
12.499950	12.271250	693.919219	42.210965	0.180513	0.000000	0.112947	0.000000	0.000000	0.000000	0.000000	0.000000	0.000000	0.000000	10.512514	0.000000	0.000000	0.000000	0.000000	
12.501617	11.997311	693.718885	42.176551	0.179714	0.000000	0.112923	0.000000	0.000000	0.000000	0.000000	0.000000	0.000000	0.000000	10.529828	0.000000	0.000000	0.000000	0.000000	
12.503283	11.713691	693.588475	42.147080	0.178912	0.000000	0.112898	0.000000	0.000000	0.000000	0.000000	0.000000	0.000000	0.000000	10.552102	0.000000	0.000000	0.000000	0.000000	
12.504946	11.420197	693.526149	42.122147	0.178104	0.000000	0.112874	0.000000	0.000000	0.000000	0.000000	0.000000	0.000000	0.000000	10.579182	0.000000	0.000000	0.000000	0.000000	
12.506614	11.116657	693.529976	42.101349	0.177292	0.000000	0.112849	0.000000	0.000000	0.000000	0.000000	0.000000	0.000000	0.000000	10.610912	0.000000	0.000000	0.000000	0.000000	
12.508279	10.802920	693.597949	42.084295	0.176476	0.000000	0.112825	0.000000	0.000000	0.000000	0.000000	0.000000	0.000000	0.000000	10.647141	0.000000	0.000000	0.000000	0.000000	
12.509945	10.478853	693.727988	42.070605	0.175656	0.000000	0.112801	0.000000	0.000000	0.000000	0.000000	0.000000	0.000000	0.000000	10.687717	0.000000	0.000000	0.000000	0.000000	
12.511617	10.144345	693.917959	42.059909	0.174833	0.000000	0.112776	0.000000	0.000000	0.000000	0.000000	0.000000	0.000000	0.000000	10.732492	0.000000	0.000000	0.000000	0.000000	
12.513285	9.799304	694.165677	42.051853	0.174006	0.000000	0.112751	0.000000	0.000000	0.000000	0.000000	0.000000	0.000000	0.000000	10.781320	0.000000	0.000000	0.000000	0.000000	
12.514945	9.443659	694.468922	42.046095	0.173177	0.000000	0.112726	0.000000	0.000000	0.000000	0.000000	0.000000	0.000000	0.000000	10.834059	0.000000	0.000000	0.000000	0.000000	
12.516616	9.077357	694.825443	42.042312	0.172346	0.000000	0.112701	0.000000	0.000000	0.000000	0.000000	0.000000	0.000000	0.000000	10.890567	0.000000	0.000000	0.000000	0.000000	
12.518283	8.700366	695.232977	42.040197	0.171513	0.000000	0.112675	0.000000	0.000000	0.000000	0.000000	0.000000	0.000000	0.000000	10.950710	0.000000	0.000000	0.000000	0.000000	
12.519951	8.312672	695.689251	42.039464	0.170678	0.000000	0.112649	0.000000	0.000000	0.000000	0.000000	0.000000	0.000000	0.000000	11.014355	0.000000	0.000000	0.000000	0.000000	
12.521612	7.914281	696.191996	42.039843	0.169842	0.000000	0.112623	0.000000	0.000000	0.000000	0.000000	0.000000	0.000000	0.000000	11.081372	0.000000	0.000000	0.000000	0.000000	
12.523277	7.505217	696.738957	42.041088	0.169006	0.000000	0.112596	0.000000	0.000000	0.000000	0.000000	0.000000	0.000000	0.000000	11.151638	0.000000	0.000000	0.000000	0.000000	
12.524946	7.085522	697.327900	42.042972	0.168168	0.000000	0.112569	0.000000	0.000000	0.000000	0.000000	0.000000	0.000000	0.000000	11.225031	0.000000	0.000000	0.000000	0.000000	
12.526618	6.655255	697.956623	42.045291	0.167331	0.000000	0.112542	0.000000	0.000000	0.000000	0.000000	0.000000	0.000000	0.000000	11.301434	0.000000	0.000000	0.000000	0.000000	
12.528284	6.214492	698.622964	42.047863	0.166494	0.000000	0.112514	0.000000	0.000000	0.000000	0.000000	0.000000	0.000000	0.000000	11.380735	0.000000	0.000000	0.000000	0.000000	
12.529953	5.763327	699.324811	42.050529	0.165658	0.000000	0.112485	0.000000	0.000000	0.000000	0.000000	0.000000	0.000000	0.000000	11.462825	0.000000	0.000000	0.000000	0.000000	
12.531614	5.301868	700.060106	42.053152	0.164822	0.000000	0.112456	0.000000	0.000000	0.000000	0.000000	0.000000	0.000000	0.000000	11.547598	0.000000	0.000000	0.000000	0.000000	
12.533284	4.830242	700.826856	42.055620	0.163987	0.000000	0.112427	0.000000	0.000000	0.000000	0.000000	0.000000	0.000000	0.000000	11.634954	0.000000	0.000000	0.000000	0.000000	
12.534945	4.348586	701.623142	42.057842	0.163153	0.000000	0.112397	0.000000	0.000000	0.000000	0.000000	0.000000	0.000000	0.000000	11.724793	0.000000	0.000000	0.000000	0.000000	
12.536616	3.857056	702.447117	42.059753	0.162320	0.000000	0.112367	0.000000	0.000000	0.000000	0.000000	0.000000	0.000000	0.000000	11.817022	0.000000	0.000000	0.000000	0.000000	
12.538281	3.355820	703.297023	42.061308	0.161489	0.000000	0.112336	0.000000	0.000000	0.000000	0.000000	0.000000	0.000000	0.000000	11.911548	0.000000	0.000000	0.000000	0.000000	
12.539951	2.845061	704.171188	42.062487	0.160658	0.000000	0.112305	0.000000	0.000000	0.000000	0.000000	0.000000	0.000000	0.000000	12.008284	0.000000	0.000000	0.000000	0.000000	
12.541616	2.324973	705.068035	42.063291	0.159830	0.000000	0.112273	0.000000	0.000000	0.000000	0.000000	0.000000	0.000000	0.000000	12.107142	0.000000	0.000000	0.000000	0.000000	
12.543279	1.795765	705.986085	42.063742	0.159002	0.000000	0.112241	0.000000	0.000000	0.000000	0.000000	0.000000	0.000000	0.000000	12.208039	0.000000	0.000000	0.000000	0.000000	
12.544944	1.257656	706.923960	42.063885	0.158176	0.000000	0.112209	0.000000	0.000000	0.000000	0.000000	0.000000	0.000000	0.000000	12.310892	0.000000	0.000000	0.000000	0.000000	
12.546614	0.710880	707.880388	42.063783	0.157350	0.000000	0.112176	0.000000	0.000000	0.000000	0.000000	0.000000	0.000000	0.000000	12.415620	0.000000	0.000000	0.000000	0.000000	
12.548282	0.155679	708.854206	42.063521	0.156526	0.000000	0.112144	0.000000	0.000000	0.000000	0.000000	0.000000	0.000000	0.000000	12.522145	0.000000	0.000000	0.000000	0.000000	
12.549949	-0.407692	709.844358	42.063201	0.155702	0.000000	0.112110	0.000000	0.000000	0.000000	0.000000	0.000000	0.000000	0.000000	12.630388	0.000000	0.000000	0.000000	0.000000	
12.551612	-0.978967	710.849898	42.062945	0.154879	0.000000	0.112077	0.000000	0.000000	0.000000	0.000000	0.000000	0.000000	0.000000	12.740271	0.000000	0.000000	0.000000	0.000000	
12.553281	-1.557873	711.869995	42.062890	0.154056	0.000000	0.112044	0.000000	0.000000	0.000000	0.000000	0.000000	0.000000	0.000000	12.851716	0.000000	0.000000	0.000000	0.000000	
12.554950	-2.144123	712.903927	42.063188	0.153233	0.000000	0.112010	0.000000	0.000000	0.000000	0.000000	0.000000	0.000000	0.000000	12.964647	0.000000	0.000000	0.000000	0.000000	
12.556611	-2.737423	713.951081	42.064009	0.152409	0.000000	0.111976	0.000000	0.000000	0.000000	0.000000	0.000000	0.000000	0.000000	13.078985	0.000000	0.000000	0.000000	0.000000	
12.558278	-3.337471	715.010957	42.065535	0.151584	0.000000	0.111943	0.000000	0.000000	0.000000	0.000000	0.000000	0.000000	0.000000	13.194651	0.000000	0.000000	0.000000	0.000000	
